<svg width="100" height="86" viewBox="0 0 100 86" fill="none" xmlns="http://www.w3.org/2000/svg">
<g clip-path="url(#clip0_527_29)">
<path d="M87.6879 42.7007C87.6879 66.1217 69.0264 85.3976 46.3496 85.3976C23.6735 85.3976 5.01129 66.1206 5.01129 42.7007C5.01129 19.2784 23.237 0.00390625 46.3496 0.00390625C68.5879 0.00390625 87.6879 19.2795 87.6879 42.7007Z" fill="#0F3A97"/>
<path d="M55.6739 65.1728C73.3348 72.6846 70.2706 53.7026 60.8562 39.1679C55.5203 30.9337 48.5617 24.0733 44.1726 20.7626C29.6197 9.78105 20.6359 16.4415 30.9123 38.0987C34.2349 45.1009 38.5023 49.8269 41.8354 54.2815C44.3809 57.6823 49.3389 59.3851 47.5924 60.998C45.6239 62.8179 40.8584 54.7918 40.8584 54.7918C37.3388 50.4032 33.9839 45.7203 30.5263 39.2933C22.6271 24.6151 23.766 9.63354 38.0651 16.1595C50.1998 21.7006 61.7905 37.2419 66.4512 48.2785C68.6033 53.3753 74.4717 73.5385 55.7808 65.3863" fill="white"/>
<path d="M-5.1095 59.8743C3.34762 53.6234 11.3659 49.5875 25.0111 44.5851C44.1854 37.555 58.6163 32.8296 76.3238 22.9519C84.2498 18.5315 98.0022 8.61778 102.92 0C101.448 3.33548 96.886 9.82771 94.8224 12.6986C70.7977 46.0843 19.6231 44.1912 -4.77179 60.219" fill="#F7410A"/>
<path d="M77.8189 54.3934L77.665 55.8646L76.2532 56.0256L77.6772 56.185L77.8329 57.7106L77.9885 56.185L79.3866 55.9973L77.9759 55.8635L77.8189 54.3934ZM74.7101 65.3319C74.7101 65.6262 74.4762 65.8679 74.1919 65.8679C74.0546 65.8674 73.923 65.8107 73.8259 65.7103C73.7288 65.6099 73.674 65.4739 73.6735 65.3319C73.6735 65.0383 73.9076 64.7973 74.1919 64.7973C74.329 64.7978 74.4603 64.8543 74.5573 64.9544C74.6544 65.0545 74.7092 65.1902 74.7101 65.3319Z" fill="white"/>
<path d="M74.1951 63.7008L74.0394 65.1728L72.6284 65.3326L74.0524 65.4935L74.2084 67.0176L74.364 65.4935L75.7614 65.3058L74.3497 65.1717L74.1951 63.7008ZM36.0676 21.1367C36.0676 21.4302 35.8337 21.6716 35.5498 21.6716C35.4126 21.6713 35.2811 21.6148 35.1839 21.5146C35.0868 21.4144 35.032 21.2785 35.0313 21.1367C35.0313 20.8423 35.2648 20.6013 35.5498 20.6013C35.8337 20.602 36.0676 20.8431 36.0676 21.1367Z" fill="white"/>
<path d="M35.5488 19.5049L35.3931 20.9761L33.9811 21.137L35.4058 21.2961L35.5614 22.8224L35.7164 21.2961L37.1151 21.1098L35.703 20.9754L35.5488 19.5049ZM55.3377 8.18914C55.3377 8.48273 55.1035 8.72448 54.8192 8.72448C54.5349 8.72448 54.3018 8.48273 54.3018 8.18914C54.3018 7.89483 54.5345 7.65308 54.8192 7.65308C55.1039 7.65308 55.3377 7.89556 55.3377 8.18914Z" fill="white"/>
<path d="M54.8192 6.55591L54.6649 8.02819L53.2536 8.18912L54.6779 8.34896L54.8321 9.87416L54.9878 8.34896L56.3858 8.16121L54.9741 8.02746L54.8192 6.55591ZM31.9099 73.8969C31.9099 74.1913 31.6761 74.4323 31.3921 74.4323C31.2549 74.4318 31.1234 74.3753 31.0263 74.275C30.9292 74.1747 30.8743 74.0388 30.8737 73.8969C30.8737 73.6037 31.1075 73.3612 31.3921 73.3612C31.6761 73.3616 31.9099 73.6041 31.9099 73.8969Z" fill="white"/>
<path d="M31.4044 72.2627L31.2495 73.735L29.8378 73.8952L31.2621 74.055L31.4174 75.5802L31.5724 74.055L32.9711 73.868L31.5597 73.7339L31.4044 72.2627Z" fill="white"/>
<path d="M99.9961 4.1145C93.6962 23.4375 68.4595 38.3586 47.2155 52.6022C34.3992 61.1985 21.6749 71.0924 12.915 79.5107C10.6062 81.7307 13.3855 78.6803 12.5007 79.6179C24.7255 65.0651 38.7879 56.3967 46.5589 50.94C59.7011 41.7087 67.1761 39.3822 89.8498 17.7891" fill="#F7410A"/>
<path d="M6.00864 51.9867C3.74611 53.1302 1.71951 54.2607 0 55.3644L1.04608 55.758C2.54999 54.8008 4.35539 53.8022 6.25719 52.9225M17.953 73.6102C15.8004 75.5509 13.6835 77.5334 11.6033 79.5566L11.5086 81.0321C13.4718 78.9404 15.8833 76.6834 18.6664 74.2876" fill="#EE293D"/>
<path d="M55.6739 65.1727C73.3348 72.6845 70.2706 53.7026 60.8562 39.1679C55.52 30.9337 48.9399 24.4016 44.1723 20.7626C38.6053 16.5128 38.062 16.1605 38.062 16.1605C50.4936 22.261 61.7873 37.2425 66.4473 48.2799C68.6001 53.3764 74.4682 73.5396 55.7769 65.3873" fill="white"/>
<path fill-rule="evenodd" clip-rule="evenodd" d="M49.0204 29.7394C52.9506 26.8455 56.182 24.7548 60.7108 23.0396C64.0981 21.7568 68.2055 20.7502 71.8166 20.5264L76.0973 20.3186C76.117 20.045 70.4595 18.1749 69.8886 18.0147C63.0375 16.0918 54.5791 16.0405 47.8363 18.1877C47.3828 19.1281 46.5127 20.3364 45.9635 21.3445C45.3335 22.501 44.8856 23.6007 44.3543 24.7981C44.258 25.015 44.2294 25.186 44.2499 25.3318C44.3014 25.696 44.6602 25.9029 45.0412 26.275C45.854 27.0692 48.2566 29.4724 49.0204 29.7394Z" fill="#F78B1F"/>
<path fill-rule="evenodd" clip-rule="evenodd" d="M56.017 14.2979C57.9534 14.2643 59.8346 14.3144 61.756 14.5788C62.5944 14.6942 67.7728 15.2985 71.5399 17.0098C71.7332 16.8299 66.9558 14.0975 66.5568 13.8896C64.772 12.9598 62.742 12.1332 60.842 11.534C59.166 11.0055 57.7813 10.6805 56.0963 10.3202C55.2667 10.1429 55.2369 10.1582 54.6079 10.7052C53.2857 11.8551 51.555 13.3637 50.4937 14.7784C52.373 14.6129 54.1006 14.3312 56.017 14.2979Z" fill="#005594"/>
<path fill-rule="evenodd" clip-rule="evenodd" d="M56.3321 48.6487C56.0695 48.4346 57.7402 40.2633 50.5687 39.119C48.564 38.7991 46.2097 39.0259 44.4977 40.2771C43.1229 41.2818 42.1546 42.858 41.7576 45.2179C41.6619 45.1515 41.4236 43.8848 41.3486 43.6744C40.0238 39.9541 36.6502 38.4188 33.0835 38.904C29.7447 39.3581 26.9501 41.9073 26.4362 45.4541L26.2299 47.0187C25.8847 46.7122 25.818 46.2909 24.749 45.6061C24.1338 45.2121 23.4637 44.914 22.789 44.6631C21.3066 44.1117 19.7451 43.8672 18.238 43.4114C17.6553 43.2352 16.7353 42.9289 16.4006 42.3423C15.9744 41.5954 16.2834 40.6542 16.9435 40.2504C18.4045 39.3568 20.2441 40.007 21.7687 40.3369L21.7595 36.4427C11.4794 34.6499 10.4185 42.2171 12.631 44.9091C14.8403 47.5971 20.2682 47.4106 21.9045 48.8272C22.5935 49.4238 22.473 50.6268 21.777 51.1946C21.0845 51.7595 19.9295 51.8353 19.0954 51.8138C17.2025 51.765 15.8372 51.1265 14.2664 50.0483C13.4695 49.5013 13.7658 49.2518 12.4999 50.6711L10.9489 52.47C11.1205 53.0326 14.1342 54.4856 14.767 54.7143C18.1523 55.9385 24.1212 56.027 26.2157 52.363C26.6663 51.5746 26.7364 50.9978 26.9314 50.1204C27.8743 51.5802 27.9881 52.4655 30.0512 53.6761C30.8086 54.1206 31.5479 54.4481 32.3939 54.6172C33.4168 54.8216 34.4294 54.8593 35.4068 54.8048L35.3743 51.367C35.1211 51.3872 34.1768 51.3595 33.6776 51.2555C33.1857 51.153 32.7766 50.9772 32.3457 50.6997C31.521 50.1684 31.0923 49.3431 30.8681 48.3549L41.7162 48.3697L41.7586 54.5953L46.3492 54.5883L46.3511 46.1288C46.3513 45.4211 46.4844 44.8426 46.6197 44.4827C47.7543 42.0084 50.5718 42.3472 51.3696 44.2513C51.703 45.0471 51.725 45.3844 51.7253 46.2266L51.7288 54.5408L56.2593 54.5472L56.3097 51.2629L56.3982 51.5241C57.3591 55.0782 62.7623 55.5874 65.4002 53.7697L66.4817 52.9832L66.5025 54.542C67.7994 54.5215 69.5357 54.5729 70.8804 54.5872L70.9144 48.3808C70.9543 48.3434 71.4596 51.3742 74.791 53.5552C76.8059 54.8742 79.4122 55.5222 81.7518 55.3809V51.6988C73.4677 51.6868 73.9832 40.3094 81.7518 40.607V36.9162C78.2972 36.8767 74.5248 37.9562 72.3011 41.0547C71.4224 42.279 71.3253 42.8134 70.8178 44.23C70.489 43.2393 70.6051 42.7403 69.9771 41.7026C69.5301 40.9638 69.0161 40.4073 68.2971 39.9798C66.3805 38.8023 64.8656 39.0117 62.6988 39.0303L62.6949 42.6438C63.65 42.6811 64.5266 42.6257 65.3631 43.1815C66.1712 43.7185 66.5135 44.4844 66.4632 45.3307C66.3141 45.3945 63.7814 45.1435 63.3464 45.1343C62.2367 45.1107 61.2496 45.226 60.143 45.3782C58.2735 45.6355 57.0281 46.682 56.3321 48.6487ZM62.9621 48.0135C63.7489 47.9274 64.5149 47.9317 65.3036 47.9819C66.317 48.0465 66.759 47.8263 66.5174 49.1928C66.2793 50.5394 65.2256 51.3689 64.0499 51.6408C60.3768 52.4901 58.6593 48.4844 62.9621 48.0135ZM33.5671 42.4133C36.8441 41.8121 38.0161 45.5506 37.3519 45.6218C36.9804 45.6616 33.1482 45.6128 32.3994 45.6128C30.6734 45.6128 30.6618 45.7917 30.944 44.9145C31.386 43.5409 32.2336 42.6579 33.5671 42.4133Z" fill="white"/>
<path fill-rule="evenodd" clip-rule="evenodd" d="M45.3666 33.0604C45.9574 32.4898 46.5272 31.9308 47.1296 31.3733C47.7138 30.8325 48.4881 30.2844 49.0204 29.7397C48.2566 29.4727 45.854 27.0695 45.0411 26.2753C44.6602 25.9032 44.3013 25.6963 44.2499 25.332C44.2293 25.1863 44.258 25.0153 44.3542 24.7983C44.8855 23.601 45.3334 22.5013 45.9635 21.3448C46.5127 20.3367 47.3827 19.1284 47.8363 18.188C45.746 18.6154 42.6805 20.1009 40.6586 21.0154C40.8555 21.5902 42.4352 23.469 42.9062 23.9868C43.621 24.7726 43.7755 25.026 44.0269 25.3612C42.8445 28.7022 42.0879 31.9652 42.0646 36.7467C42.1843 36.8363 43.4257 35.1284 43.6662 34.8757C44.2373 34.2755 44.7708 33.636 45.3666 33.0604Z" fill="#F6BF86"/>
</g>
<defs>
<clipPath id="clip0_527_29">
<rect width="100" height="85.4015" fill="white"/>
</clipPath>
</defs>
</svg>
